<?xml version="1.0" encoding="UTF-8" standalone="no"?><svg xmlns="http://www.w3.org/2000/svg" xmlns:xlink="http://www.w3.org/1999/xlink" contentScriptType="application/ecmascript" contentStyleType="text/css" height="591px" preserveAspectRatio="none" style="width:901px;height:591px;" version="1.1" viewBox="0 0 901 591" width="901px" zoomAndPan="magnify"><defs><filter height="300%" id="ffqoejdkwn6y5" width="300%" x="-1" y="-1"><feGaussianBlur result="blurOut" stdDeviation="2.0"/><feColorMatrix in="blurOut" result="blurOut2" type="matrix" values="0 0 0 0 0 0 0 0 0 0 0 0 0 0 0 0 0 0 .4 0"/><feOffset dx="4.0" dy="4.0" in="blurOut2" result="blurOut3"/><feBlend in="SourceGraphic" in2="blurOut3" mode="normal"/></filter></defs><g><rect fill="#DDDDDD" height="576.0469" style="stroke: #A80036; stroke-width: 1.0;" width="768.5" x="121.5" y="4"/><text fill="#000000" font-family="sans-serif" font-size="13" font-weight="bold" lengthAdjust="spacingAndGlyphs" textLength="32" x="489.75" y="16.0669">Dart</text><rect fill="#FFFFFF" filter="url(#ffqoejdkwn6y5)" height="401.5938" style="stroke: #A80036; stroke-width: 1.0;" width="10" x="204" y="105.8594"/><rect fill="#FFFFFF" filter="url(#ffqoejdkwn6y5)" height="364.4609" style="stroke: #A80036; stroke-width: 1.0;" width="10" x="209" y="142.9922"/><rect fill="#FFFFFF" filter="url(#ffqoejdkwn6y5)" height="322.3281" style="stroke: #A80036; stroke-width: 1.0;" width="10" x="214" y="185.125"/><rect fill="#FFFFFF" filter="url(#ffqoejdkwn6y5)" height="163.6641" style="stroke: #A80036; stroke-width: 1.0;" width="10" x="219" y="343.7891"/><rect fill="#FFFFFF" filter="url(#ffqoejdkwn6y5)" height="63.2656" style="stroke: #A80036; stroke-width: 1.0;" width="10" x="224" y="444.1875"/><rect fill="#FFFFFF" filter="url(#ffqoejdkwn6y5)" height="87.3984" style="stroke: #A80036; stroke-width: 1.0;" width="10" x="401" y="219.2578"/><rect fill="#FFFFFF" filter="url(#ffqoejdkwn6y5)" height="29.1328" style="stroke: #A80036; stroke-width: 1.0;" width="10" x="547.5" y="248.3906"/><rect fill="#FFFFFF" filter="url(#ffqoejdkwn6y5)" height="29.1328" style="stroke: #A80036; stroke-width: 1.0;" width="10" x="666" y="377.9219"/><rect fill="#FFFFFF" filter="url(#ffqoejdkwn6y5)" height="29.1328" style="stroke: #A80036; stroke-width: 1.0;" width="10" x="807.5" y="478.3203"/><line style="stroke: #A80036; stroke-width: 1.0; stroke-dasharray: 5.0,5.0;" x1="208.5" x2="208.5" y1="74.7266" y2="525.4531"/><line style="stroke: #A80036; stroke-width: 1.0; stroke-dasharray: 5.0,5.0;" x1="406" x2="406" y1="74.7266" y2="525.4531"/><line style="stroke: #A80036; stroke-width: 1.0; stroke-dasharray: 5.0,5.0;" x1="552" x2="552" y1="74.7266" y2="525.4531"/><line style="stroke: #A80036; stroke-width: 1.0; stroke-dasharray: 5.0,5.0;" x1="671" x2="671" y1="74.7266" y2="525.4531"/><line style="stroke: #A80036; stroke-width: 1.0; stroke-dasharray: 5.0,5.0;" x1="812" x2="812" y1="74.7266" y2="525.4531"/><rect fill="#FEFECE" filter="url(#ffqoejdkwn6y5)" height="46.5938" style="stroke: #A80036; stroke-width: 1.5;" width="163" x="125.5" y="23.1328"/><text fill="#000000" font-family="sans-serif" font-size="14" lengthAdjust="spacingAndGlyphs" textLength="149" x="132.5" y="43.1279">gestures/binding.dart</text><text fill="#000000" font-family="sans-serif" font-size="14" lengthAdjust="spacingAndGlyphs" textLength="108" x="153" y="59.4248">GestureBinding</text><rect fill="#FEFECE" filter="url(#ffqoejdkwn6y5)" height="46.5938" style="stroke: #A80036; stroke-width: 1.5;" width="163" x="125.5" y="524.4531"/><text fill="#000000" font-family="sans-serif" font-size="14" lengthAdjust="spacingAndGlyphs" textLength="149" x="132.5" y="544.4482">gestures/binding.dart</text><text fill="#000000" font-family="sans-serif" font-size="14" lengthAdjust="spacingAndGlyphs" textLength="108" x="153" y="560.7451">GestureBinding</text><rect fill="#FEFECE" filter="url(#ffqoejdkwn6y5)" height="46.5938" style="stroke: #A80036; stroke-width: 1.5;" width="168" x="320" y="23.1328"/><text fill="#000000" font-family="sans-serif" font-size="14" lengthAdjust="spacingAndGlyphs" textLength="154" x="327" y="43.1279">rendering/binding.dart</text><text fill="#000000" font-family="sans-serif" font-size="14" lengthAdjust="spacingAndGlyphs" textLength="117" x="345.5" y="59.4248">RendererBinding</text><rect fill="#FEFECE" filter="url(#ffqoejdkwn6y5)" height="46.5938" style="stroke: #A80036; stroke-width: 1.5;" width="168" x="320" y="524.4531"/><text fill="#000000" font-family="sans-serif" font-size="14" lengthAdjust="spacingAndGlyphs" textLength="154" x="327" y="544.4482">rendering/binding.dart</text><text fill="#000000" font-family="sans-serif" font-size="14" lengthAdjust="spacingAndGlyphs" textLength="117" x="345.5" y="560.7451">RendererBinding</text><rect fill="#FEFECE" filter="url(#ffqoejdkwn6y5)" height="46.5938" style="stroke: #A80036; stroke-width: 1.5;" width="97" x="502" y="23.1328"/><text fill="#000000" font-family="sans-serif" font-size="14" lengthAdjust="spacingAndGlyphs" textLength="61" x="520" y="43.1279">view.dart</text><text fill="#000000" font-family="sans-serif" font-size="14" lengthAdjust="spacingAndGlyphs" textLength="83" x="509" y="59.4248">RenderView</text><rect fill="#FEFECE" filter="url(#ffqoejdkwn6y5)" height="46.5938" style="stroke: #A80036; stroke-width: 1.5;" width="97" x="502" y="524.4531"/><text fill="#000000" font-family="sans-serif" font-size="14" lengthAdjust="spacingAndGlyphs" textLength="61" x="520" y="544.4482">view.dart</text><text fill="#000000" font-family="sans-serif" font-size="14" lengthAdjust="spacingAndGlyphs" textLength="83" x="509" y="560.7451">RenderView</text><rect fill="#FEFECE" filter="url(#ffqoejdkwn6y5)" height="46.5938" style="stroke: #A80036; stroke-width: 1.5;" width="112" x="613" y="23.1328"/><text fill="#000000" font-family="sans-serif" font-size="14" lengthAdjust="spacingAndGlyphs" textLength="82" x="628" y="43.1279">hit_test.dart</text><text fill="#000000" font-family="sans-serif" font-size="14" lengthAdjust="spacingAndGlyphs" textLength="94" x="620" y="59.4248">HitTestTarget</text><rect fill="#FEFECE" filter="url(#ffqoejdkwn6y5)" height="46.5938" style="stroke: #A80036; stroke-width: 1.5;" width="112" x="613" y="524.4531"/><text fill="#000000" font-family="sans-serif" font-size="14" lengthAdjust="spacingAndGlyphs" textLength="82" x="628" y="544.4482">hit_test.dart</text><text fill="#000000" font-family="sans-serif" font-size="14" lengthAdjust="spacingAndGlyphs" textLength="94" x="620" y="560.7451">HitTestTarget</text><rect fill="#FEFECE" filter="url(#ffqoejdkwn6y5)" height="46.5938" style="stroke: #A80036; stroke-width: 1.5;" width="143" x="739" y="23.1328"/><text fill="#000000" font-family="sans-serif" font-size="14" lengthAdjust="spacingAndGlyphs" textLength="129" x="746" y="43.1279">pointer_router.dart</text><text fill="#000000" font-family="sans-serif" font-size="14" lengthAdjust="spacingAndGlyphs" textLength="96" x="760.5" y="59.4248">PointerRouter</text><rect fill="#FEFECE" filter="url(#ffqoejdkwn6y5)" height="46.5938" style="stroke: #A80036; stroke-width: 1.5;" width="143" x="739" y="524.4531"/><text fill="#000000" font-family="sans-serif" font-size="14" lengthAdjust="spacingAndGlyphs" textLength="129" x="746" y="544.4482">pointer_router.dart</text><text fill="#000000" font-family="sans-serif" font-size="14" lengthAdjust="spacingAndGlyphs" textLength="96" x="760.5" y="560.7451">PointerRouter</text><rect fill="#FFFFFF" filter="url(#ffqoejdkwn6y5)" height="401.5938" style="stroke: #A80036; stroke-width: 1.0;" width="10" x="204" y="105.8594"/><rect fill="#FFFFFF" filter="url(#ffqoejdkwn6y5)" height="364.4609" style="stroke: #A80036; stroke-width: 1.0;" width="10" x="209" y="142.9922"/><rect fill="#FFFFFF" filter="url(#ffqoejdkwn6y5)" height="322.3281" style="stroke: #A80036; stroke-width: 1.0;" width="10" x="214" y="185.125"/><rect fill="#FFFFFF" filter="url(#ffqoejdkwn6y5)" height="163.6641" style="stroke: #A80036; stroke-width: 1.0;" width="10" x="219" y="343.7891"/><rect fill="#FFFFFF" filter="url(#ffqoejdkwn6y5)" height="63.2656" style="stroke: #A80036; stroke-width: 1.0;" width="10" x="224" y="444.1875"/><rect fill="#FFFFFF" filter="url(#ffqoejdkwn6y5)" height="87.3984" style="stroke: #A80036; stroke-width: 1.0;" width="10" x="401" y="219.2578"/><rect fill="#FFFFFF" filter="url(#ffqoejdkwn6y5)" height="29.1328" style="stroke: #A80036; stroke-width: 1.0;" width="10" x="547.5" y="248.3906"/><rect fill="#FFFFFF" filter="url(#ffqoejdkwn6y5)" height="29.1328" style="stroke: #A80036; stroke-width: 1.0;" width="10" x="666" y="377.9219"/><rect fill="#FFFFFF" filter="url(#ffqoejdkwn6y5)" height="29.1328" style="stroke: #A80036; stroke-width: 1.0;" width="10" x="807.5" y="478.3203"/><polygon fill="#A80036" points="192,101.8594,202,105.8594,192,109.8594,196,105.8594" style="stroke: #A80036; stroke-width: 1.0;"/><line style="stroke: #A80036; stroke-width: 1.0;" x1="3" x2="198" y1="105.8594" y2="105.8594"/><text fill="#000000" font-family="sans-serif" font-size="13" font-weight="bold" lengthAdjust="spacingAndGlyphs" textLength="9" x="10" y="100.7935">1</text><text fill="#000000" font-family="sans-serif" font-size="13" lengthAdjust="spacingAndGlyphs" textLength="169" x="23" y="100.7935">_handlePointerDataPacket</text><line style="stroke: #A80036; stroke-width: 1.0;" x1="214" x2="261" y1="129.9922" y2="129.9922"/><line style="stroke: #A80036; stroke-width: 1.0;" x1="261" x2="261" y1="129.9922" y2="142.9922"/><line style="stroke: #A80036; stroke-width: 1.0;" x1="220" x2="261" y1="142.9922" y2="142.9922"/><polygon fill="#A80036" points="230,138.9922,220,142.9922,230,146.9922,226,142.9922" style="stroke: #A80036; stroke-width: 1.0;"/><text fill="#000000" font-family="sans-serif" font-size="13" font-weight="bold" lengthAdjust="spacingAndGlyphs" textLength="9" x="226" y="124.9263">2</text><text fill="#000000" font-family="sans-serif" font-size="13" lengthAdjust="spacingAndGlyphs" textLength="160" x="239" y="124.9263">_flushPointerEventQueue</text><line style="stroke: #A80036; stroke-width: 1.0;" x1="219" x2="266" y1="172.125" y2="172.125"/><line style="stroke: #A80036; stroke-width: 1.0;" x1="266" x2="266" y1="172.125" y2="185.125"/><line style="stroke: #A80036; stroke-width: 1.0;" x1="225" x2="266" y1="185.125" y2="185.125"/><polygon fill="#A80036" points="235,181.125,225,185.125,235,189.125,231,185.125" style="stroke: #A80036; stroke-width: 1.0;"/><text fill="#000000" font-family="sans-serif" font-size="13" font-weight="bold" lengthAdjust="spacingAndGlyphs" textLength="9" x="231" y="167.0591">3</text><text fill="#000000" font-family="sans-serif" font-size="13" lengthAdjust="spacingAndGlyphs" textLength="131" x="244" y="167.0591">_handlePointerEvent</text><polygon fill="#A80036" points="389,215.2578,399,219.2578,389,223.2578,393,219.2578" style="stroke: #A80036; stroke-width: 1.0;"/><line style="stroke: #A80036; stroke-width: 1.0;" x1="224" x2="395" y1="219.2578" y2="219.2578"/><text fill="#000000" font-family="sans-serif" font-size="13" font-weight="bold" lengthAdjust="spacingAndGlyphs" textLength="9" x="231" y="214.1919">4</text><text fill="#000000" font-family="sans-serif" font-size="13" lengthAdjust="spacingAndGlyphs" textLength="43" x="244" y="214.1919">hitTest</text><polygon fill="#A80036" points="535.5,244.3906,545.5,248.3906,535.5,252.3906,539.5,248.3906" style="stroke: #A80036; stroke-width: 1.0;"/><line style="stroke: #A80036; stroke-width: 1.0;" x1="411" x2="541.5" y1="248.3906" y2="248.3906"/><text fill="#000000" font-family="sans-serif" font-size="13" font-weight="bold" lengthAdjust="spacingAndGlyphs" textLength="9" x="418" y="243.3247">5</text><text fill="#000000" font-family="sans-serif" font-size="13" lengthAdjust="spacingAndGlyphs" textLength="43" x="431" y="243.3247">hitTest</text><polygon fill="#A80036" points="422,273.5234,412,277.5234,422,281.5234,418,277.5234" style="stroke: #A80036; stroke-width: 1.0;"/><line style="stroke: #A80036; stroke-width: 1.0; stroke-dasharray: 2.0,2.0;" x1="416" x2="551.5" y1="277.5234" y2="277.5234"/><text fill="#000000" font-family="sans-serif" font-size="13" font-weight="bold" lengthAdjust="spacingAndGlyphs" textLength="9" x="428" y="272.4575">6</text><text fill="#000000" font-family="sans-serif" font-size="13" lengthAdjust="spacingAndGlyphs" textLength="0" x="445" y="272.4575"/><polygon fill="#A80036" points="235,302.6563,225,306.6563,235,310.6563,231,306.6563" style="stroke: #A80036; stroke-width: 1.0;"/><line style="stroke: #A80036; stroke-width: 1.0; stroke-dasharray: 2.0,2.0;" x1="229" x2="405" y1="306.6563" y2="306.6563"/><text fill="#000000" font-family="sans-serif" font-size="13" font-weight="bold" lengthAdjust="spacingAndGlyphs" textLength="9" x="241" y="301.5903">7</text><text fill="#000000" font-family="sans-serif" font-size="13" lengthAdjust="spacingAndGlyphs" textLength="43" x="254" y="301.5903">hitTest</text><line style="stroke: #A80036; stroke-width: 1.0;" x1="224" x2="271" y1="330.7891" y2="330.7891"/><line style="stroke: #A80036; stroke-width: 1.0;" x1="271" x2="271" y1="330.7891" y2="343.7891"/><line style="stroke: #A80036; stroke-width: 1.0;" x1="230" x2="271" y1="343.7891" y2="343.7891"/><polygon fill="#A80036" points="240,339.7891,230,343.7891,240,347.7891,236,343.7891" style="stroke: #A80036; stroke-width: 1.0;"/><text fill="#000000" font-family="sans-serif" font-size="13" font-weight="bold" lengthAdjust="spacingAndGlyphs" textLength="9" x="236" y="325.7231">8</text><text fill="#000000" font-family="sans-serif" font-size="13" lengthAdjust="spacingAndGlyphs" textLength="90" x="249" y="325.7231">dispatchEvent</text><polygon fill="#A80036" points="654,373.9219,664,377.9219,654,381.9219,658,377.9219" style="stroke: #A80036; stroke-width: 1.0;"/><line style="stroke: #A80036; stroke-width: 1.0;" x1="229" x2="660" y1="377.9219" y2="377.9219"/><text fill="#000000" font-family="sans-serif" font-size="13" font-weight="bold" lengthAdjust="spacingAndGlyphs" textLength="9" x="236" y="372.856">9</text><text fill="#000000" font-family="sans-serif" font-size="13" lengthAdjust="spacingAndGlyphs" textLength="79" x="249" y="372.856">handleEvent</text><polygon fill="#A80036" points="240,403.0547,230,407.0547,240,411.0547,236,407.0547" style="stroke: #A80036; stroke-width: 1.0;"/><line style="stroke: #A80036; stroke-width: 1.0; stroke-dasharray: 2.0,2.0;" x1="234" x2="670" y1="407.0547" y2="407.0547"/><text fill="#000000" font-family="sans-serif" font-size="13" font-weight="bold" lengthAdjust="spacingAndGlyphs" textLength="18" x="246" y="401.9888">10</text><text fill="#000000" font-family="sans-serif" font-size="13" lengthAdjust="spacingAndGlyphs" textLength="0" x="272" y="401.9888"/><line style="stroke: #A80036; stroke-width: 1.0;" x1="229" x2="276" y1="431.1875" y2="431.1875"/><line style="stroke: #A80036; stroke-width: 1.0;" x1="276" x2="276" y1="431.1875" y2="444.1875"/><line style="stroke: #A80036; stroke-width: 1.0;" x1="235" x2="276" y1="444.1875" y2="444.1875"/><polygon fill="#A80036" points="245,440.1875,235,444.1875,245,448.1875,241,444.1875" style="stroke: #A80036; stroke-width: 1.0;"/><text fill="#000000" font-family="sans-serif" font-size="13" font-weight="bold" lengthAdjust="spacingAndGlyphs" textLength="18" x="241" y="426.1216">11</text><text fill="#000000" font-family="sans-serif" font-size="13" lengthAdjust="spacingAndGlyphs" textLength="79" x="263" y="426.1216">handleEvent</text><polygon fill="#A80036" points="795.5,474.3203,805.5,478.3203,795.5,482.3203,799.5,478.3203" style="stroke: #A80036; stroke-width: 1.0;"/><line style="stroke: #A80036; stroke-width: 1.0;" x1="234" x2="801.5" y1="478.3203" y2="478.3203"/><text fill="#000000" font-family="sans-serif" font-size="13" font-weight="bold" lengthAdjust="spacingAndGlyphs" textLength="18" x="241" y="473.2544">12</text><text fill="#000000" font-family="sans-serif" font-size="13" lengthAdjust="spacingAndGlyphs" textLength="34" x="263" y="473.2544">route</text><polygon fill="#A80036" points="220,503.4531,210,507.4531,220,511.4531,216,507.4531" style="stroke: #A80036; stroke-width: 1.0;"/><line style="stroke: #A80036; stroke-width: 1.0; stroke-dasharray: 2.0,2.0;" x1="214" x2="811.5" y1="507.4531" y2="507.4531"/><text fill="#000000" font-family="sans-serif" font-size="13" font-weight="bold" lengthAdjust="spacingAndGlyphs" textLength="18" x="226" y="502.3872">13</text><text fill="#000000" font-family="sans-serif" font-size="13" lengthAdjust="spacingAndGlyphs" textLength="0" x="252" y="502.3872"/></g></svg>