<?xml version="1.0" encoding="UTF-8" standalone="no"?><svg xmlns="http://www.w3.org/2000/svg" xmlns:xlink="http://www.w3.org/1999/xlink" contentScriptType="application/ecmascript" contentStyleType="text/css" height="577px" preserveAspectRatio="none" style="width:2631px;height:577px;" version="1.1" viewBox="0 0 2631 577" width="2631px" zoomAndPan="magnify"><defs><filter height="300%" id="f1un3pqzcqxhg5" width="300%" x="-1" y="-1"><feGaussianBlur result="blurOut" stdDeviation="2.0"/><feColorMatrix in="blurOut" result="blurOut2" type="matrix" values="0 0 0 0 0 0 0 0 0 0 0 0 0 0 0 0 0 0 .4 0"/><feOffset dx="4.0" dy="4.0" in="blurOut2" result="blurOut3"/><feBlend in="SourceGraphic" in2="blurOut3" mode="normal"/></filter></defs><g><rect fill="#DDDDDD" height="562.7188" style="stroke: #A80036; stroke-width: 1.0;" width="1011.5" x="110" y="4"/><text fill="#000000" font-family="sans-serif" font-size="13" font-weight="bold" lengthAdjust="spacingAndGlyphs" textLength="30" x="600.75" y="16.0669">Java</text><rect fill="#DDDDDD" height="562.7188" style="stroke: #A80036; stroke-width: 1.0;" width="1182.5" x="1438" y="4"/><text fill="#000000" font-family="sans-serif" font-size="13" font-weight="bold" lengthAdjust="spacingAndGlyphs" textLength="32" x="2013.25" y="16.0669">C++</text><rect fill="#FFFFFF" filter="url(#f1un3pqzcqxhg5)" height="420.8594" style="stroke: #A80036; stroke-width: 1.0;" width="10" x="171" y="89.5625"/><rect fill="#FFFFFF" filter="url(#f1un3pqzcqxhg5)" height="391.7266" style="stroke: #A80036; stroke-width: 1.0;" width="10" x="350.5" y="118.6953"/><rect fill="#FFFFFF" filter="url(#f1un3pqzcqxhg5)" height="325.4609" style="stroke: #A80036; stroke-width: 1.0;" width="10" x="355.5" y="155.8281"/><rect fill="#FFFFFF" filter="url(#f1un3pqzcqxhg5)" height="291.3281" style="stroke: #A80036; stroke-width: 1.0;" width="10" x="738.5" y="189.9609"/><rect fill="#FFFFFF" filter="url(#f1un3pqzcqxhg5)" height="233.0625" style="stroke: #A80036; stroke-width: 1.0;" width="10" x="1058.5" y="219.0938"/><rect fill="#FFFFFF" filter="url(#f1un3pqzcqxhg5)" height="174.7969" style="stroke: #A80036; stroke-width: 1.0;" width="10" x="1560.5" y="248.2266"/><rect fill="#FFFFFF" filter="url(#f1un3pqzcqxhg5)" height="116.5313" style="stroke: #A80036; stroke-width: 1.0;" width="10" x="1868.5" y="277.3594"/><rect fill="#FFFFFF" filter="url(#f1un3pqzcqxhg5)" height="58.2656" style="stroke: #A80036; stroke-width: 1.0;" width="10" x="2225.5" y="306.4922"/><line style="stroke: #A80036; stroke-width: 1.0; stroke-dasharray: 5.0,5.0;" x1="176" x2="176" y1="58.4297" y2="528.4219"/><line style="stroke: #A80036; stroke-width: 1.0; stroke-dasharray: 5.0,5.0;" x1="355" x2="355" y1="58.4297" y2="528.4219"/><line style="stroke: #A80036; stroke-width: 1.0; stroke-dasharray: 5.0,5.0;" x1="743" x2="743" y1="58.4297" y2="528.4219"/><line style="stroke: #A80036; stroke-width: 1.0; stroke-dasharray: 5.0,5.0;" x1="1063.5" x2="1063.5" y1="58.4297" y2="528.4219"/><line style="stroke: #A80036; stroke-width: 1.0; stroke-dasharray: 5.0,5.0;" x1="1565" x2="1565" y1="58.4297" y2="528.4219"/><line style="stroke: #A80036; stroke-width: 1.0; stroke-dasharray: 5.0,5.0;" x1="1873" x2="1873" y1="58.4297" y2="528.4219"/><line style="stroke: #A80036; stroke-width: 1.0; stroke-dasharray: 5.0,5.0;" x1="2230.5" x2="2230.5" y1="58.4297" y2="528.4219"/><line style="stroke: #A80036; stroke-width: 1.0; stroke-dasharray: 5.0,5.0;" x1="2573.5" x2="2573.5" y1="58.4297" y2="528.4219"/><rect fill="#FEFECE" filter="url(#f1un3pqzcqxhg5)" height="30.2969" style="stroke: #A80036; stroke-width: 1.5;" width="120" x="114" y="23.1328"/><text fill="#000000" font-family="sans-serif" font-size="14" lengthAdjust="spacingAndGlyphs" textLength="106" x="121" y="43.1279">FlutterView.java</text><rect fill="#FEFECE" filter="url(#f1un3pqzcqxhg5)" height="30.2969" style="stroke: #A80036; stroke-width: 1.5;" width="120" x="114" y="527.4219"/><text fill="#000000" font-family="sans-serif" font-size="14" lengthAdjust="spacingAndGlyphs" textLength="106" x="121" y="547.417">FlutterView.java</text><rect fill="#FEFECE" filter="url(#f1un3pqzcqxhg5)" height="30.2969" style="stroke: #A80036; stroke-width: 1.5;" width="211" x="248" y="23.1328"/><text fill="#000000" font-family="sans-serif" font-size="14" lengthAdjust="spacingAndGlyphs" textLength="197" x="255" y="43.1279">AndroidTouchProcessor.java</text><rect fill="#FEFECE" filter="url(#f1un3pqzcqxhg5)" height="30.2969" style="stroke: #A80036; stroke-width: 1.5;" width="211" x="248" y="527.4219"/><text fill="#000000" font-family="sans-serif" font-size="14" lengthAdjust="spacingAndGlyphs" textLength="197" x="255" y="547.417">AndroidTouchProcessor.java</text><rect fill="#FEFECE" filter="url(#f1un3pqzcqxhg5)" height="30.2969" style="stroke: #A80036; stroke-width: 1.5;" width="153" x="665" y="23.1328"/><text fill="#000000" font-family="sans-serif" font-size="14" lengthAdjust="spacingAndGlyphs" textLength="139" x="672" y="43.1279">FlutterRenderer.java</text><rect fill="#FEFECE" filter="url(#f1un3pqzcqxhg5)" height="30.2969" style="stroke: #A80036; stroke-width: 1.5;" width="153" x="665" y="527.4219"/><text fill="#000000" font-family="sans-serif" font-size="14" lengthAdjust="spacingAndGlyphs" textLength="139" x="672" y="547.417">FlutterRenderer.java</text><rect fill="#FEFECE" filter="url(#f1un3pqzcqxhg5)" height="30.2969" style="stroke: #A80036; stroke-width: 1.5;" width="104" x="1009.5" y="23.1328"/><text fill="#000000" font-family="sans-serif" font-size="14" lengthAdjust="spacingAndGlyphs" textLength="90" x="1016.5" y="43.1279">FlutterJNI.java</text><rect fill="#FEFECE" filter="url(#f1un3pqzcqxhg5)" height="30.2969" style="stroke: #A80036; stroke-width: 1.5;" width="104" x="1009.5" y="527.4219"/><text fill="#000000" font-family="sans-serif" font-size="14" lengthAdjust="spacingAndGlyphs" textLength="90" x="1016.5" y="547.417">FlutterJNI.java</text><rect fill="#FEFECE" filter="url(#f1un3pqzcqxhg5)" height="30.2969" style="stroke: #A80036; stroke-width: 1.5;" width="243" x="1442" y="23.1328"/><text fill="#000000" font-family="sans-serif" font-size="14" lengthAdjust="spacingAndGlyphs" textLength="229" x="1449" y="43.1279">platform_view_android_jni_impl.cc</text><rect fill="#FEFECE" filter="url(#f1un3pqzcqxhg5)" height="30.2969" style="stroke: #A80036; stroke-width: 1.5;" width="243" x="1442" y="527.4219"/><text fill="#000000" font-family="sans-serif" font-size="14" lengthAdjust="spacingAndGlyphs" textLength="229" x="1449" y="547.417">platform_view_android_jni_impl.cc</text><rect fill="#FEFECE" filter="url(#f1un3pqzcqxhg5)" height="30.2969" style="stroke: #A80036; stroke-width: 1.5;" width="127" x="1808" y="23.1328"/><text fill="#000000" font-family="sans-serif" font-size="14" lengthAdjust="spacingAndGlyphs" textLength="113" x="1815" y="43.1279">platform_view.cc</text><rect fill="#FEFECE" filter="url(#f1un3pqzcqxhg5)" height="30.2969" style="stroke: #A80036; stroke-width: 1.5;" width="127" x="1808" y="527.4219"/><text fill="#000000" font-family="sans-serif" font-size="14" lengthAdjust="spacingAndGlyphs" textLength="113" x="1815" y="547.417">platform_view.cc</text><rect fill="#FEFECE" filter="url(#f1un3pqzcqxhg5)" height="30.2969" style="stroke: #A80036; stroke-width: 1.5;" width="66" x="2195.5" y="23.1328"/><text fill="#000000" font-family="sans-serif" font-size="14" lengthAdjust="spacingAndGlyphs" textLength="52" x="2202.5" y="43.1279">shell.cc</text><rect fill="#FEFECE" filter="url(#f1un3pqzcqxhg5)" height="30.2969" style="stroke: #A80036; stroke-width: 1.5;" width="66" x="2195.5" y="527.4219"/><text fill="#000000" font-family="sans-serif" font-size="14" lengthAdjust="spacingAndGlyphs" textLength="52" x="2202.5" y="547.417">shell.cc</text><rect fill="#FEFECE" filter="url(#f1un3pqzcqxhg5)" height="30.2969" style="stroke: #A80036; stroke-width: 1.5;" width="82" x="2530.5" y="23.1328"/><text fill="#000000" font-family="sans-serif" font-size="14" lengthAdjust="spacingAndGlyphs" textLength="68" x="2537.5" y="43.1279">engine.cc</text><rect fill="#FEFECE" filter="url(#f1un3pqzcqxhg5)" height="30.2969" style="stroke: #A80036; stroke-width: 1.5;" width="82" x="2530.5" y="527.4219"/><text fill="#000000" font-family="sans-serif" font-size="14" lengthAdjust="spacingAndGlyphs" textLength="68" x="2537.5" y="547.417">engine.cc</text><rect fill="#FFFFFF" filter="url(#f1un3pqzcqxhg5)" height="420.8594" style="stroke: #A80036; stroke-width: 1.0;" width="10" x="171" y="89.5625"/><rect fill="#FFFFFF" filter="url(#f1un3pqzcqxhg5)" height="391.7266" style="stroke: #A80036; stroke-width: 1.0;" width="10" x="350.5" y="118.6953"/><rect fill="#FFFFFF" filter="url(#f1un3pqzcqxhg5)" height="325.4609" style="stroke: #A80036; stroke-width: 1.0;" width="10" x="355.5" y="155.8281"/><rect fill="#FFFFFF" filter="url(#f1un3pqzcqxhg5)" height="291.3281" style="stroke: #A80036; stroke-width: 1.0;" width="10" x="738.5" y="189.9609"/><rect fill="#FFFFFF" filter="url(#f1un3pqzcqxhg5)" height="233.0625" style="stroke: #A80036; stroke-width: 1.0;" width="10" x="1058.5" y="219.0938"/><rect fill="#FFFFFF" filter="url(#f1un3pqzcqxhg5)" height="174.7969" style="stroke: #A80036; stroke-width: 1.0;" width="10" x="1560.5" y="248.2266"/><rect fill="#FFFFFF" filter="url(#f1un3pqzcqxhg5)" height="116.5313" style="stroke: #A80036; stroke-width: 1.0;" width="10" x="1868.5" y="277.3594"/><rect fill="#FFFFFF" filter="url(#f1un3pqzcqxhg5)" height="58.2656" style="stroke: #A80036; stroke-width: 1.0;" width="10" x="2225.5" y="306.4922"/><polygon fill="#A80036" points="159,85.5625,169,89.5625,159,93.5625,163,89.5625" style="stroke: #A80036; stroke-width: 1.0;"/><line style="stroke: #A80036; stroke-width: 1.0;" x1="3" x2="165" y1="89.5625" y2="89.5625"/><text fill="#000000" font-family="sans-serif" font-size="13" font-weight="bold" lengthAdjust="spacingAndGlyphs" textLength="9" x="10" y="84.4966">1</text><text fill="#000000" font-family="sans-serif" font-size="13" lengthAdjust="spacingAndGlyphs" textLength="136" x="23" y="84.4966">onTouchEvent(event)</text><polygon fill="#A80036" points="338.5,114.6953,348.5,118.6953,338.5,122.6953,342.5,118.6953" style="stroke: #A80036; stroke-width: 1.0;"/><line style="stroke: #A80036; stroke-width: 1.0;" x1="181" x2="344.5" y1="118.6953" y2="118.6953"/><text fill="#000000" font-family="sans-serif" font-size="13" font-weight="bold" lengthAdjust="spacingAndGlyphs" textLength="9" x="188" y="113.6294">2</text><text fill="#000000" font-family="sans-serif" font-size="13" lengthAdjust="spacingAndGlyphs" textLength="136" x="201" y="113.6294">onTouchEvent(event)</text><line style="stroke: #A80036; stroke-width: 1.0;" x1="360.5" x2="407.5" y1="142.8281" y2="142.8281"/><line style="stroke: #A80036; stroke-width: 1.0;" x1="407.5" x2="407.5" y1="142.8281" y2="155.8281"/><line style="stroke: #A80036; stroke-width: 1.0;" x1="366.5" x2="407.5" y1="155.8281" y2="155.8281"/><polygon fill="#A80036" points="376.5,151.8281,366.5,155.8281,376.5,159.8281,372.5,155.8281" style="stroke: #A80036; stroke-width: 1.0;"/><text fill="#000000" font-family="sans-serif" font-size="13" font-weight="bold" lengthAdjust="spacingAndGlyphs" textLength="9" x="372.5" y="137.7622">3</text><text fill="#000000" font-family="sans-serif" font-size="13" lengthAdjust="spacingAndGlyphs" textLength="285" x="385.5" y="137.7622">onTouchEvent(event, IDENTITY_TRANSFORM)</text><polygon fill="#A80036" points="726.5,185.9609,736.5,189.9609,726.5,193.9609,730.5,189.9609" style="stroke: #A80036; stroke-width: 1.0;"/><line style="stroke: #A80036; stroke-width: 1.0;" x1="365.5" x2="732.5" y1="189.9609" y2="189.9609"/><text fill="#000000" font-family="sans-serif" font-size="13" font-weight="bold" lengthAdjust="spacingAndGlyphs" textLength="9" x="372.5" y="184.895">4</text><text fill="#000000" font-family="sans-serif" font-size="13" lengthAdjust="spacingAndGlyphs" textLength="341" x="385.5" y="184.895">dispatchPointerDataPacket(packet, packet.position())</text><polygon fill="#A80036" points="1046.5,215.0938,1056.5,219.0938,1046.5,223.0938,1050.5,219.0938" style="stroke: #A80036; stroke-width: 1.0;"/><line style="stroke: #A80036; stroke-width: 1.0;" x1="748.5" x2="1052.5" y1="219.0938" y2="219.0938"/><text fill="#000000" font-family="sans-serif" font-size="13" font-weight="bold" lengthAdjust="spacingAndGlyphs" textLength="9" x="755.5" y="214.0278">5</text><text fill="#000000" font-family="sans-serif" font-size="13" lengthAdjust="spacingAndGlyphs" textLength="278" x="768.5" y="214.0278">dispatchPointerDataPacket(buffer, position)</text><polygon fill="#A80036" points="1548.5,244.2266,1558.5,248.2266,1548.5,252.2266,1552.5,248.2266" style="stroke: #A80036; stroke-width: 1.0;"/><line style="stroke: #A80036; stroke-width: 1.0;" x1="1068.5" x2="1554.5" y1="248.2266" y2="248.2266"/><text fill="#000000" font-family="sans-serif" font-size="13" font-weight="bold" lengthAdjust="spacingAndGlyphs" textLength="9" x="1075.5" y="243.1606">6</text><text fill="#000000" font-family="sans-serif" font-size="13" lengthAdjust="spacingAndGlyphs" textLength="460" x="1088.5" y="243.1606">nativeDispatchPointerDataPacket(nativePlatformViewId, buffer, position)</text><polygon fill="#A80036" points="1856.5,273.3594,1866.5,277.3594,1856.5,281.3594,1860.5,277.3594" style="stroke: #A80036; stroke-width: 1.0;"/><line style="stroke: #A80036; stroke-width: 1.0;" x1="1570.5" x2="1862.5" y1="277.3594" y2="277.3594"/><text fill="#000000" font-family="sans-serif" font-size="13" font-weight="bold" lengthAdjust="spacingAndGlyphs" textLength="9" x="1577.5" y="272.2935">7</text><text fill="#000000" font-family="sans-serif" font-size="13" lengthAdjust="spacingAndGlyphs" textLength="266" x="1590.5" y="272.2935">PlatformView::DispatchPointerDataPacket</text><polygon fill="#A80036" points="2213.5,302.4922,2223.5,306.4922,2213.5,310.4922,2217.5,306.4922" style="stroke: #A80036; stroke-width: 1.0;"/><line style="stroke: #A80036; stroke-width: 1.0;" x1="1878.5" x2="2219.5" y1="306.4922" y2="306.4922"/><text fill="#000000" font-family="sans-serif" font-size="13" font-weight="bold" lengthAdjust="spacingAndGlyphs" textLength="9" x="1885.5" y="301.4263">8</text><text fill="#000000" font-family="sans-serif" font-size="13" lengthAdjust="spacingAndGlyphs" textLength="315" x="1898.5" y="301.4263">Shell::OnPlatformViewDispatchPointerDataPacket</text><polygon fill="#A80036" points="2561.5,331.625,2571.5,335.625,2561.5,339.625,2565.5,335.625" style="stroke: #A80036; stroke-width: 1.0;"/><line style="stroke: #A80036; stroke-width: 1.0;" x1="2235.5" x2="2567.5" y1="335.625" y2="335.625"/><text fill="#000000" font-family="sans-serif" font-size="13" font-weight="bold" lengthAdjust="spacingAndGlyphs" textLength="9" x="2242.5" y="330.5591">9</text><text fill="#000000" font-family="sans-serif" font-size="13" lengthAdjust="spacingAndGlyphs" textLength="301" x="2255.5" y="330.5591">PostTask -- Engine::DispatchPointerDataPacket</text><polygon fill="#A80036" points="1889.5,360.7578,1879.5,364.7578,1889.5,368.7578,1885.5,364.7578" style="stroke: #A80036; stroke-width: 1.0;"/><line style="stroke: #A80036; stroke-width: 1.0; stroke-dasharray: 2.0,2.0;" x1="1883.5" x2="2229.5" y1="364.7578" y2="364.7578"/><text fill="#000000" font-family="sans-serif" font-size="13" font-weight="bold" lengthAdjust="spacingAndGlyphs" textLength="18" x="1895.5" y="359.6919">10</text><text fill="#000000" font-family="sans-serif" font-size="13" lengthAdjust="spacingAndGlyphs" textLength="0" x="1921.5" y="359.6919"/><polygon fill="#A80036" points="1581.5,389.8906,1571.5,393.8906,1581.5,397.8906,1577.5,393.8906" style="stroke: #A80036; stroke-width: 1.0;"/><line style="stroke: #A80036; stroke-width: 1.0; stroke-dasharray: 2.0,2.0;" x1="1575.5" x2="1872.5" y1="393.8906" y2="393.8906"/><text fill="#000000" font-family="sans-serif" font-size="13" font-weight="bold" lengthAdjust="spacingAndGlyphs" textLength="18" x="1587.5" y="388.8247">11</text><text fill="#000000" font-family="sans-serif" font-size="13" lengthAdjust="spacingAndGlyphs" textLength="0" x="1613.5" y="388.8247"/><polygon fill="#A80036" points="1079.5,419.0234,1069.5,423.0234,1079.5,427.0234,1075.5,423.0234" style="stroke: #A80036; stroke-width: 1.0;"/><line style="stroke: #A80036; stroke-width: 1.0; stroke-dasharray: 2.0,2.0;" x1="1073.5" x2="1564.5" y1="423.0234" y2="423.0234"/><text fill="#000000" font-family="sans-serif" font-size="13" font-weight="bold" lengthAdjust="spacingAndGlyphs" textLength="18" x="1085.5" y="417.9575">12</text><text fill="#000000" font-family="sans-serif" font-size="13" lengthAdjust="spacingAndGlyphs" textLength="0" x="1111.5" y="417.9575"/><polygon fill="#A80036" points="759.5,448.1563,749.5,452.1563,759.5,456.1563,755.5,452.1563" style="stroke: #A80036; stroke-width: 1.0;"/><line style="stroke: #A80036; stroke-width: 1.0; stroke-dasharray: 2.0,2.0;" x1="753.5" x2="1062.5" y1="452.1563" y2="452.1563"/><text fill="#000000" font-family="sans-serif" font-size="13" font-weight="bold" lengthAdjust="spacingAndGlyphs" textLength="18" x="765.5" y="447.0903">13</text><text fill="#000000" font-family="sans-serif" font-size="13" lengthAdjust="spacingAndGlyphs" textLength="0" x="791.5" y="447.0903"/><polygon fill="#A80036" points="371.5,477.2891,361.5,481.2891,371.5,485.2891,367.5,481.2891" style="stroke: #A80036; stroke-width: 1.0;"/><line style="stroke: #A80036; stroke-width: 1.0; stroke-dasharray: 2.0,2.0;" x1="365.5" x2="742.5" y1="481.2891" y2="481.2891"/><text fill="#000000" font-family="sans-serif" font-size="13" font-weight="bold" lengthAdjust="spacingAndGlyphs" textLength="18" x="377.5" y="476.2231">14</text><text fill="#000000" font-family="sans-serif" font-size="13" lengthAdjust="spacingAndGlyphs" textLength="0" x="403.5" y="476.2231"/><polygon fill="#A80036" points="187,506.4219,177,510.4219,187,514.4219,183,510.4219" style="stroke: #A80036; stroke-width: 1.0;"/><line style="stroke: #A80036; stroke-width: 1.0; stroke-dasharray: 2.0,2.0;" x1="181" x2="354.5" y1="510.4219" y2="510.4219"/><text fill="#000000" font-family="sans-serif" font-size="13" font-weight="bold" lengthAdjust="spacingAndGlyphs" textLength="18" x="193" y="505.356">15</text><text fill="#000000" font-family="sans-serif" font-size="13" lengthAdjust="spacingAndGlyphs" textLength="73" x="215" y="505.356">return true;</text></g></svg>