<?xml version="1.0" encoding="UTF-8" standalone="no"?><svg xmlns="http://www.w3.org/2000/svg" xmlns:xlink="http://www.w3.org/1999/xlink" contentScriptType="application/ecmascript" contentStyleType="text/css" height="670px" preserveAspectRatio="none" style="width:3361px;height:670px;" version="1.1" viewBox="0 0 3361 670" width="3361px" zoomAndPan="magnify"><defs><filter height="300%" id="f1d44b8mxjm2n0" width="300%" x="-1" y="-1"><feGaussianBlur result="blurOut" stdDeviation="2.0"/><feColorMatrix in="blurOut" result="blurOut2" type="matrix" values="0 0 0 0 0 0 0 0 0 0 0 0 0 0 0 0 0 0 .4 0"/><feOffset dx="4.0" dy="4.0" in="blurOut2" result="blurOut3"/><feBlend in="SourceGraphic" in2="blurOut3" mode="normal"/></filter></defs><g><rect fill="#FEFECE" filter="url(#f1d44b8mxjm2n0)" height="48" id="GestureRecognizer" style="stroke: #A80036; stroke-width: 1.5;" width="150" x="2676" y="93"/><ellipse cx="2691" cy="109" fill="#ADD1B2" rx="11" ry="11" style="stroke: #A80036; stroke-width: 1.0;"/><path d="M2693.9688,114.6406 Q2693.3906,114.9375 2692.75,115.0859 Q2692.1094,115.2344 2691.4063,115.2344 Q2688.9063,115.2344 2687.5859,113.5859 Q2686.2656,111.9375 2686.2656,108.8125 Q2686.2656,105.6875 2687.5859,104.0313 Q2688.9063,102.375 2691.4063,102.375 Q2692.1094,102.375 2692.7578,102.5313 Q2693.4063,102.6875 2693.9688,102.9844 L2693.9688,105.7031 Q2693.3438,105.125 2692.75,104.8516 Q2692.1563,104.5781 2691.5313,104.5781 Q2690.1875,104.5781 2689.5,105.6484 Q2688.8125,106.7188 2688.8125,108.8125 Q2688.8125,110.9063 2689.5,111.9766 Q2690.1875,113.0469 2691.5313,113.0469 Q2692.1563,113.0469 2692.75,112.7734 Q2693.3438,112.5 2693.9688,111.9219 L2693.9688,114.6406 Z "/><text fill="#000000" font-family="sans-serif" font-size="12" lengthAdjust="spacingAndGlyphs" textLength="118" x="2705" y="113.1543">GestureRecognizer</text><line style="stroke: #A80036; stroke-width: 1.5;" x1="2677" x2="2825" y1="125" y2="125"/><line style="stroke: #A80036; stroke-width: 1.5;" x1="2677" x2="2825" y1="133" y2="133"/><path d="M2692,8 L2692,33.1328 A0,0 0 0 0 2692,33.1328 L2747,33.1328 L2751,92.8824 L2755,33.1328 L2810,33.1328 A0,0 0 0 0 2810,33.1328 L2810,18 L2800,8 L2692,8 A0,0 0 0 0 2692,8 " fill="#FBFB77" filter="url(#f1d44b8mxjm2n0)" style="stroke: #A80036; stroke-width: 1.0;"/><path d="M2800,8 L2800,18 L2810,18 L2800,8 " fill="#FBFB77" style="stroke: #A80036; stroke-width: 1.0;"/><text fill="#000000" font-family="sans-serif" font-size="13" lengthAdjust="spacingAndGlyphs" textLength="97" x="2698" y="25.0669">recognizer.dart</text><rect fill="#FEFECE" filter="url(#f1d44b8mxjm2n0)" height="48" id="OneSequenceGestureRecognizer" style="stroke: #A80036; stroke-width: 1.5;" width="238" x="1278" y="201"/><ellipse cx="1293" cy="217" fill="#A9DCDF" rx="11" ry="11" style="stroke: #A80036; stroke-width: 1.0;"/><path d="M1293.1094,212.3438 L1291.9531,217.4219 L1294.2813,217.4219 L1293.1094,212.3438 Z M1291.625,210.1094 L1294.6094,210.1094 L1297.9688,222.5 L1295.5156,222.5 L1294.75,219.4375 L1291.4688,219.4375 L1290.7188,222.5 L1288.2813,222.5 L1291.625,210.1094 Z "/><text fill="#000000" font-family="sans-serif" font-size="12" font-style="italic" lengthAdjust="spacingAndGlyphs" textLength="206" x="1307" y="221.1543">OneSequenceGestureRecognizer</text><line style="stroke: #A80036; stroke-width: 1.5;" x1="1279" x2="1515" y1="233" y2="233"/><line style="stroke: #A80036; stroke-width: 1.5;" x1="1279" x2="1515" y1="241" y2="241"/><path d="M1125,212.5 L1125,237.6328 A0,0 0 0 0 1125,237.6328 L1243,237.6328 A0,0 0 0 0 1243,237.6328 L1243,230.5 L1277.948,225 L1243,222.5 L1243,222.5 L1233,212.5 L1125,212.5 A0,0 0 0 0 1125,212.5 " fill="#FBFB77" filter="url(#f1d44b8mxjm2n0)" style="stroke: #A80036; stroke-width: 1.0;"/><path d="M1233,212.5 L1233,222.5 L1243,222.5 L1233,212.5 " fill="#FBFB77" style="stroke: #A80036; stroke-width: 1.0;"/><text fill="#000000" font-family="sans-serif" font-size="13" lengthAdjust="spacingAndGlyphs" textLength="97" x="1131" y="229.5669">recognizer.dart</text><rect fill="#FEFECE" filter="url(#f1d44b8mxjm2n0)" height="48" id="PrimaryPointerGestureRecognizer" style="stroke: #A80036; stroke-width: 1.5;" width="241" x="292.5" y="309"/><ellipse cx="307.5" cy="325" fill="#A9DCDF" rx="11" ry="11" style="stroke: #A80036; stroke-width: 1.0;"/><path d="M307.6094,320.3438 L306.4531,325.4219 L308.7813,325.4219 L307.6094,320.3438 Z M306.125,318.1094 L309.1094,318.1094 L312.4688,330.5 L310.0156,330.5 L309.25,327.4375 L305.9688,327.4375 L305.2188,330.5 L302.7813,330.5 L306.125,318.1094 Z "/><text fill="#000000" font-family="sans-serif" font-size="12" font-style="italic" lengthAdjust="spacingAndGlyphs" textLength="209" x="321.5" y="329.1543">PrimaryPointerGestureRecognizer</text><line style="stroke: #A80036; stroke-width: 1.5;" x1="293.5" x2="532.5" y1="341" y2="341"/><line style="stroke: #A80036; stroke-width: 1.5;" x1="293.5" x2="532.5" y1="349" y2="349"/><path d="M139,320.5 L139,345.6328 A0,0 0 0 0 139,345.6328 L257,345.6328 A0,0 0 0 0 257,345.6328 L257,338.5 L292.2011,333 L257,330.5 L257,330.5 L247,320.5 L139,320.5 A0,0 0 0 0 139,320.5 " fill="#FBFB77" filter="url(#f1d44b8mxjm2n0)" style="stroke: #A80036; stroke-width: 1.0;"/><path d="M247,320.5 L247,330.5 L257,330.5 L247,320.5 " fill="#FBFB77" style="stroke: #A80036; stroke-width: 1.0;"/><text fill="#000000" font-family="sans-serif" font-size="13" lengthAdjust="spacingAndGlyphs" textLength="97" x="145" y="337.5669">recognizer.dart</text><rect fill="#FEFECE" filter="url(#f1d44b8mxjm2n0)" height="48" id="BaseTapGestureRecognizer" style="stroke: #A80036; stroke-width: 1.5;" width="204" x="66" y="417"/><ellipse cx="81" cy="433" fill="#A9DCDF" rx="11" ry="11" style="stroke: #A80036; stroke-width: 1.0;"/><path d="M81.1094,428.3438 L79.9531,433.4219 L82.2813,433.4219 L81.1094,428.3438 Z M79.625,426.1094 L82.6094,426.1094 L85.9688,438.5 L83.5156,438.5 L82.75,435.4375 L79.4688,435.4375 L78.7188,438.5 L76.2813,438.5 L79.625,426.1094 Z "/><text fill="#000000" font-family="sans-serif" font-size="12" font-style="italic" lengthAdjust="spacingAndGlyphs" textLength="172" x="95" y="437.1543">BaseTapGestureRecognizer</text><line style="stroke: #A80036; stroke-width: 1.5;" x1="67" x2="269" y1="449" y2="449"/><line style="stroke: #A80036; stroke-width: 1.5;" x1="67" x2="269" y1="457" y2="457"/><path d="M6,536.5 L6,561.6328 A0,0 0 0 0 6,561.6328 L78,561.6328 A0,0 0 0 0 78,561.6328 L78,546.5 L68,536.5 L60.8369,536.5 L139.7231,465.2373 L52.8369,536.5 L6,536.5 A0,0 0 0 0 6,536.5 " fill="#FBFB77" filter="url(#f1d44b8mxjm2n0)" style="stroke: #A80036; stroke-width: 1.0;"/><path d="M68,536.5 L68,546.5 L78,546.5 L68,536.5 " fill="#FBFB77" style="stroke: #A80036; stroke-width: 1.0;"/><text fill="#000000" font-family="sans-serif" font-size="13" lengthAdjust="spacingAndGlyphs" textLength="51" x="12" y="553.5669">tap.dart</text><rect fill="#FEFECE" filter="url(#f1d44b8mxjm2n0)" height="48" id="TapGestureRecognizer" style="stroke: #A80036; stroke-width: 1.5;" width="173" x="113.5" y="525"/><ellipse cx="128.5" cy="541" fill="#ADD1B2" rx="11" ry="11" style="stroke: #A80036; stroke-width: 1.0;"/><path d="M131.4688,546.6406 Q130.8906,546.9375 130.25,547.0859 Q129.6094,547.2344 128.9063,547.2344 Q126.4063,547.2344 125.0859,545.5859 Q123.7656,543.9375 123.7656,540.8125 Q123.7656,537.6875 125.0859,536.0313 Q126.4063,534.375 128.9063,534.375 Q129.6094,534.375 130.2578,534.5313 Q130.9063,534.6875 131.4688,534.9844 L131.4688,537.7031 Q130.8438,537.125 130.25,536.8516 Q129.6563,536.5781 129.0313,536.5781 Q127.6875,536.5781 127,537.6484 Q126.3125,538.7188 126.3125,540.8125 Q126.3125,542.9063 127,543.9766 Q127.6875,545.0469 129.0313,545.0469 Q129.6563,545.0469 130.25,544.7734 Q130.8438,544.5 131.4688,543.9219 L131.4688,546.6406 Z "/><text fill="#000000" font-family="sans-serif" font-size="12" lengthAdjust="spacingAndGlyphs" textLength="141" x="142.5" y="545.1543">TapGestureRecognizer</text><line style="stroke: #A80036; stroke-width: 1.5;" x1="114.5" x2="285.5" y1="557" y2="557"/><line style="stroke: #A80036; stroke-width: 1.5;" x1="114.5" x2="285.5" y1="565" y2="565"/><path d="M164,633 L164,658.1328 A0,0 0 0 0 164,658.1328 L236,658.1328 A0,0 0 0 0 236,658.1328 L236,643 L226,633 L204,633 L200,573.351 L196,633 L164,633 A0,0 0 0 0 164,633 " fill="#FBFB77" filter="url(#f1d44b8mxjm2n0)" style="stroke: #A80036; stroke-width: 1.0;"/><path d="M226,633 L226,643 L236,643 L226,633 " fill="#FBFB77" style="stroke: #A80036; stroke-width: 1.0;"/><text fill="#000000" font-family="sans-serif" font-size="13" lengthAdjust="spacingAndGlyphs" textLength="51" x="170" y="650.0669">tap.dart</text><rect fill="#FEFECE" filter="url(#f1d44b8mxjm2n0)" height="48" id="LongPressGestureRecognizer" style="stroke: #A80036; stroke-width: 1.5;" width="215" x="305.5" y="417"/><ellipse cx="320.5" cy="433" fill="#ADD1B2" rx="11" ry="11" style="stroke: #A80036; stroke-width: 1.0;"/><path d="M323.4688,438.6406 Q322.8906,438.9375 322.25,439.0859 Q321.6094,439.2344 320.9063,439.2344 Q318.4063,439.2344 317.0859,437.5859 Q315.7656,435.9375 315.7656,432.8125 Q315.7656,429.6875 317.0859,428.0313 Q318.4063,426.375 320.9063,426.375 Q321.6094,426.375 322.2578,426.5313 Q322.9063,426.6875 323.4688,426.9844 L323.4688,429.7031 Q322.8438,429.125 322.25,428.8516 Q321.6563,428.5781 321.0313,428.5781 Q319.6875,428.5781 319,429.6484 Q318.3125,430.7188 318.3125,432.8125 Q318.3125,434.9063 319,435.9766 Q319.6875,437.0469 321.0313,437.0469 Q321.6563,437.0469 322.25,436.7734 Q322.8438,436.5 323.4688,435.9219 L323.4688,438.6406 Z "/><text fill="#000000" font-family="sans-serif" font-size="12" lengthAdjust="spacingAndGlyphs" textLength="183" x="334.5" y="437.1543">LongPressGestureRecognizer</text><line style="stroke: #A80036; stroke-width: 1.5;" x1="306.5" x2="519.5" y1="449" y2="449"/><line style="stroke: #A80036; stroke-width: 1.5;" x1="306.5" x2="519.5" y1="457" y2="457"/><path d="M353,536.5 L353,561.6328 A0,0 0 0 0 353,561.6328 L473,561.6328 A0,0 0 0 0 473,561.6328 L473,546.5 L463,536.5 L417,536.5 L413,465.2373 L409,536.5 L353,536.5 A0,0 0 0 0 353,536.5 " fill="#FBFB77" filter="url(#f1d44b8mxjm2n0)" style="stroke: #A80036; stroke-width: 1.0;"/><path d="M463,536.5 L463,546.5 L473,546.5 L463,536.5 " fill="#FBFB77" style="stroke: #A80036; stroke-width: 1.0;"/><text fill="#000000" font-family="sans-serif" font-size="13" lengthAdjust="spacingAndGlyphs" textLength="99" x="359" y="553.5669">long_press.dart</text><rect fill="#FEFECE" filter="url(#f1d44b8mxjm2n0)" height="48" id="DragGestureRecognizer" style="stroke: #A80036; stroke-width: 1.5;" width="180" x="826" y="309"/><ellipse cx="841" cy="325" fill="#A9DCDF" rx="11" ry="11" style="stroke: #A80036; stroke-width: 1.0;"/><path d="M841.1094,320.3438 L839.9531,325.4219 L842.2813,325.4219 L841.1094,320.3438 Z M839.625,318.1094 L842.6094,318.1094 L845.9688,330.5 L843.5156,330.5 L842.75,327.4375 L839.4688,327.4375 L838.7188,330.5 L836.2813,330.5 L839.625,318.1094 Z "/><text fill="#000000" font-family="sans-serif" font-size="12" font-style="italic" lengthAdjust="spacingAndGlyphs" textLength="148" x="855" y="329.1543">DragGestureRecognizer</text><line style="stroke: #A80036; stroke-width: 1.5;" x1="827" x2="1005" y1="341" y2="341"/><line style="stroke: #A80036; stroke-width: 1.5;" x1="827" x2="1005" y1="349" y2="349"/><path d="M1041.5,320.5 L1041.5,329 L1006.2031,333 L1041.5,337 L1041.5,345.6328 A0,0 0 0 0 1041.5,345.6328 L1158.5,345.6328 A0,0 0 0 0 1158.5,345.6328 L1158.5,330.5 L1148.5,320.5 L1041.5,320.5 A0,0 0 0 0 1041.5,320.5 " fill="#FBFB77" filter="url(#f1d44b8mxjm2n0)" style="stroke: #A80036; stroke-width: 1.0;"/><path d="M1148.5,320.5 L1148.5,330.5 L1158.5,330.5 L1148.5,320.5 " fill="#FBFB77" style="stroke: #A80036; stroke-width: 1.0;"/><text fill="#000000" font-family="sans-serif" font-size="13" lengthAdjust="spacingAndGlyphs" textLength="96" x="1047.5" y="337.5669">monodrag.dart</text><rect fill="#FEFECE" filter="url(#f1d44b8mxjm2n0)" height="48" id="PanDragGestureRecognizer" style="stroke: #A80036; stroke-width: 1.5;" width="204" x="556" y="417"/><ellipse cx="571" cy="433" fill="#ADD1B2" rx="11" ry="11" style="stroke: #A80036; stroke-width: 1.0;"/><path d="M573.9688,438.6406 Q573.3906,438.9375 572.75,439.0859 Q572.1094,439.2344 571.4063,439.2344 Q568.9063,439.2344 567.5859,437.5859 Q566.2656,435.9375 566.2656,432.8125 Q566.2656,429.6875 567.5859,428.0313 Q568.9063,426.375 571.4063,426.375 Q572.1094,426.375 572.7578,426.5313 Q573.4063,426.6875 573.9688,426.9844 L573.9688,429.7031 Q573.3438,429.125 572.75,428.8516 Q572.1563,428.5781 571.5313,428.5781 Q570.1875,428.5781 569.5,429.6484 Q568.8125,430.7188 568.8125,432.8125 Q568.8125,434.9063 569.5,435.9766 Q570.1875,437.0469 571.5313,437.0469 Q572.1563,437.0469 572.75,436.7734 Q573.3438,436.5 573.9688,435.9219 L573.9688,438.6406 Z "/><text fill="#000000" font-family="sans-serif" font-size="12" lengthAdjust="spacingAndGlyphs" textLength="172" x="585" y="437.1543">PanDragGestureRecognizer</text><line style="stroke: #A80036; stroke-width: 1.5;" x1="557" x2="759" y1="449" y2="449"/><line style="stroke: #A80036; stroke-width: 1.5;" x1="557" x2="759" y1="457" y2="457"/><path d="M599.5,536.5 L599.5,561.6328 A0,0 0 0 0 599.5,561.6328 L716.5,561.6328 A0,0 0 0 0 716.5,561.6328 L716.5,546.5 L706.5,536.5 L662,536.5 L658,465.2373 L654,536.5 L599.5,536.5 A0,0 0 0 0 599.5,536.5 " fill="#FBFB77" filter="url(#f1d44b8mxjm2n0)" style="stroke: #A80036; stroke-width: 1.0;"/><path d="M706.5,536.5 L706.5,546.5 L716.5,546.5 L706.5,536.5 " fill="#FBFB77" style="stroke: #A80036; stroke-width: 1.0;"/><text fill="#000000" font-family="sans-serif" font-size="13" lengthAdjust="spacingAndGlyphs" textLength="96" x="605.5" y="553.5669">monodrag.dart</text><rect fill="#FEFECE" filter="url(#f1d44b8mxjm2n0)" height="48" id="HorizontalDragGestureRecognizer" style="stroke: #A80036; stroke-width: 1.5;" width="242" x="795" y="417"/><ellipse cx="810" cy="433" fill="#ADD1B2" rx="11" ry="11" style="stroke: #A80036; stroke-width: 1.0;"/><path d="M812.9688,438.6406 Q812.3906,438.9375 811.75,439.0859 Q811.1094,439.2344 810.4063,439.2344 Q807.9063,439.2344 806.5859,437.5859 Q805.2656,435.9375 805.2656,432.8125 Q805.2656,429.6875 806.5859,428.0313 Q807.9063,426.375 810.4063,426.375 Q811.1094,426.375 811.7578,426.5313 Q812.4063,426.6875 812.9688,426.9844 L812.9688,429.7031 Q812.3438,429.125 811.75,428.8516 Q811.1563,428.5781 810.5313,428.5781 Q809.1875,428.5781 808.5,429.6484 Q807.8125,430.7188 807.8125,432.8125 Q807.8125,434.9063 808.5,435.9766 Q809.1875,437.0469 810.5313,437.0469 Q811.1563,437.0469 811.75,436.7734 Q812.3438,436.5 812.9688,435.9219 L812.9688,438.6406 Z "/><text fill="#000000" font-family="sans-serif" font-size="12" lengthAdjust="spacingAndGlyphs" textLength="210" x="824" y="437.1543">HorizontalDragGestureRecognizer</text><line style="stroke: #A80036; stroke-width: 1.5;" x1="796" x2="1036" y1="449" y2="449"/><line style="stroke: #A80036; stroke-width: 1.5;" x1="796" x2="1036" y1="457" y2="457"/><path d="M857.5,536.5 L857.5,561.6328 A0,0 0 0 0 857.5,561.6328 L974.5,561.6328 A0,0 0 0 0 974.5,561.6328 L974.5,546.5 L964.5,536.5 L920,536.5 L916,465.2373 L912,536.5 L857.5,536.5 A0,0 0 0 0 857.5,536.5 " fill="#FBFB77" filter="url(#f1d44b8mxjm2n0)" style="stroke: #A80036; stroke-width: 1.0;"/><path d="M964.5,536.5 L964.5,546.5 L974.5,546.5 L964.5,536.5 " fill="#FBFB77" style="stroke: #A80036; stroke-width: 1.0;"/><text fill="#000000" font-family="sans-serif" font-size="13" lengthAdjust="spacingAndGlyphs" textLength="96" x="863.5" y="553.5669">monodrag.dart</text><rect fill="#FEFECE" filter="url(#f1d44b8mxjm2n0)" height="48" id="VerticalDragGestureRecognizer" style="stroke: #A80036; stroke-width: 1.5;" width="227" x="1072.5" y="417"/><ellipse cx="1087.5" cy="433" fill="#ADD1B2" rx="11" ry="11" style="stroke: #A80036; stroke-width: 1.0;"/><path d="M1090.4688,438.6406 Q1089.8906,438.9375 1089.25,439.0859 Q1088.6094,439.2344 1087.9063,439.2344 Q1085.4063,439.2344 1084.0859,437.5859 Q1082.7656,435.9375 1082.7656,432.8125 Q1082.7656,429.6875 1084.0859,428.0313 Q1085.4063,426.375 1087.9063,426.375 Q1088.6094,426.375 1089.2578,426.5313 Q1089.9063,426.6875 1090.4688,426.9844 L1090.4688,429.7031 Q1089.8438,429.125 1089.25,428.8516 Q1088.6563,428.5781 1088.0313,428.5781 Q1086.6875,428.5781 1086,429.6484 Q1085.3125,430.7188 1085.3125,432.8125 Q1085.3125,434.9063 1086,435.9766 Q1086.6875,437.0469 1088.0313,437.0469 Q1088.6563,437.0469 1089.25,436.7734 Q1089.8438,436.5 1090.4688,435.9219 L1090.4688,438.6406 Z "/><text fill="#000000" font-family="sans-serif" font-size="12" lengthAdjust="spacingAndGlyphs" textLength="195" x="1101.5" y="437.1543">VerticalDragGestureRecognizer</text><line style="stroke: #A80036; stroke-width: 1.5;" x1="1073.5" x2="1298.5" y1="449" y2="449"/><line style="stroke: #A80036; stroke-width: 1.5;" x1="1073.5" x2="1298.5" y1="457" y2="457"/><path d="M1127.5,536.5 L1127.5,561.6328 A0,0 0 0 0 1127.5,561.6328 L1244.5,561.6328 A0,0 0 0 0 1244.5,561.6328 L1244.5,546.5 L1234.5,536.5 L1190,536.5 L1186,465.2373 L1182,536.5 L1127.5,536.5 A0,0 0 0 0 1127.5,536.5 " fill="#FBFB77" filter="url(#f1d44b8mxjm2n0)" style="stroke: #A80036; stroke-width: 1.0;"/><path d="M1234.5,536.5 L1234.5,546.5 L1244.5,546.5 L1234.5,536.5 " fill="#FBFB77" style="stroke: #A80036; stroke-width: 1.0;"/><text fill="#000000" font-family="sans-serif" font-size="13" lengthAdjust="spacingAndGlyphs" textLength="96" x="1133.5" y="553.5669">monodrag.dart</text><rect fill="#FEFECE" filter="url(#f1d44b8mxjm2n0)" height="48" id="ScaleGestureRecognizer" style="stroke: #A80036; stroke-width: 1.5;" width="184" x="1194" y="309"/><ellipse cx="1209" cy="325" fill="#ADD1B2" rx="11" ry="11" style="stroke: #A80036; stroke-width: 1.0;"/><path d="M1211.9688,330.6406 Q1211.3906,330.9375 1210.75,331.0859 Q1210.1094,331.2344 1209.4063,331.2344 Q1206.9063,331.2344 1205.5859,329.5859 Q1204.2656,327.9375 1204.2656,324.8125 Q1204.2656,321.6875 1205.5859,320.0313 Q1206.9063,318.375 1209.4063,318.375 Q1210.1094,318.375 1210.7578,318.5313 Q1211.4063,318.6875 1211.9688,318.9844 L1211.9688,321.7031 Q1211.3438,321.125 1210.75,320.8516 Q1210.1563,320.5781 1209.5313,320.5781 Q1208.1875,320.5781 1207.5,321.6484 Q1206.8125,322.7188 1206.8125,324.8125 Q1206.8125,326.9063 1207.5,327.9766 Q1208.1875,329.0469 1209.5313,329.0469 Q1210.1563,329.0469 1210.75,328.7734 Q1211.3438,328.5 1211.9688,327.9219 L1211.9688,330.6406 Z "/><text fill="#000000" font-family="sans-serif" font-size="12" lengthAdjust="spacingAndGlyphs" textLength="152" x="1223" y="329.1543">ScaleGestureRecognizer</text><line style="stroke: #A80036; stroke-width: 1.5;" x1="1195" x2="1377" y1="341" y2="341"/><line style="stroke: #A80036; stroke-width: 1.5;" x1="1195" x2="1377" y1="349" y2="349"/><path d="M1335,428.5 L1335,453.6328 A0,0 0 0 0 1335,453.6328 L1419,453.6328 A0,0 0 0 0 1419,453.6328 L1419,438.5 L1409,428.5 L1370.2844,428.5 L1306.4222,357.2373 L1362.2844,428.5 L1335,428.5 A0,0 0 0 0 1335,428.5 " fill="#FBFB77" filter="url(#f1d44b8mxjm2n0)" style="stroke: #A80036; stroke-width: 1.0;"/><path d="M1409,428.5 L1409,438.5 L1419,438.5 L1409,428.5 " fill="#FBFB77" style="stroke: #A80036; stroke-width: 1.0;"/><text fill="#000000" font-family="sans-serif" font-size="13" lengthAdjust="spacingAndGlyphs" textLength="63" x="1341" y="445.5669">scale.dart</text><rect fill="#FEFECE" filter="url(#f1d44b8mxjm2n0)" height="48" id="EagerGestureRecognizer" style="stroke: #A80036; stroke-width: 1.5;" width="187" x="1413.5" y="309"/><ellipse cx="1428.5" cy="325" fill="#ADD1B2" rx="11" ry="11" style="stroke: #A80036; stroke-width: 1.0;"/><path d="M1431.4688,330.6406 Q1430.8906,330.9375 1430.25,331.0859 Q1429.6094,331.2344 1428.9063,331.2344 Q1426.4063,331.2344 1425.0859,329.5859 Q1423.7656,327.9375 1423.7656,324.8125 Q1423.7656,321.6875 1425.0859,320.0313 Q1426.4063,318.375 1428.9063,318.375 Q1429.6094,318.375 1430.2578,318.5313 Q1430.9063,318.6875 1431.4688,318.9844 L1431.4688,321.7031 Q1430.8438,321.125 1430.25,320.8516 Q1429.6563,320.5781 1429.0313,320.5781 Q1427.6875,320.5781 1427,321.6484 Q1426.3125,322.7188 1426.3125,324.8125 Q1426.3125,326.9063 1427,327.9766 Q1427.6875,329.0469 1429.0313,329.0469 Q1429.6563,329.0469 1430.25,328.7734 Q1430.8438,328.5 1431.4688,327.9219 L1431.4688,330.6406 Z "/><text fill="#000000" font-family="sans-serif" font-size="12" lengthAdjust="spacingAndGlyphs" textLength="155" x="1442.5" y="329.1543">EagerGestureRecognizer</text><line style="stroke: #A80036; stroke-width: 1.5;" x1="1414.5" x2="1599.5" y1="341" y2="341"/><line style="stroke: #A80036; stroke-width: 1.5;" x1="1414.5" x2="1599.5" y1="349" y2="349"/><path d="M1463,428.5 L1463,453.6328 A0,0 0 0 0 1463,453.6328 L1551,453.6328 A0,0 0 0 0 1551,453.6328 L1551,438.5 L1541,428.5 L1511,428.5 L1507,357.2373 L1503,428.5 L1463,428.5 A0,0 0 0 0 1463,428.5 " fill="#FBFB77" filter="url(#f1d44b8mxjm2n0)" style="stroke: #A80036; stroke-width: 1.0;"/><path d="M1541,428.5 L1541,438.5 L1551,438.5 L1541,428.5 " fill="#FBFB77" style="stroke: #A80036; stroke-width: 1.0;"/><text fill="#000000" font-family="sans-serif" font-size="13" lengthAdjust="spacingAndGlyphs" textLength="67" x="1469" y="445.5669">eager.dart</text><rect fill="#FEFECE" filter="url(#f1d44b8mxjm2n0)" height="48" id="ForcePressGestureRecognizer" style="stroke: #A80036; stroke-width: 1.5;" width="220" x="1636" y="309"/><ellipse cx="1651" cy="325" fill="#ADD1B2" rx="11" ry="11" style="stroke: #A80036; stroke-width: 1.0;"/><path d="M1653.9688,330.6406 Q1653.3906,330.9375 1652.75,331.0859 Q1652.1094,331.2344 1651.4063,331.2344 Q1648.9063,331.2344 1647.5859,329.5859 Q1646.2656,327.9375 1646.2656,324.8125 Q1646.2656,321.6875 1647.5859,320.0313 Q1648.9063,318.375 1651.4063,318.375 Q1652.1094,318.375 1652.7578,318.5313 Q1653.4063,318.6875 1653.9688,318.9844 L1653.9688,321.7031 Q1653.3438,321.125 1652.75,320.8516 Q1652.1563,320.5781 1651.5313,320.5781 Q1650.1875,320.5781 1649.5,321.6484 Q1648.8125,322.7188 1648.8125,324.8125 Q1648.8125,326.9063 1649.5,327.9766 Q1650.1875,329.0469 1651.5313,329.0469 Q1652.1563,329.0469 1652.75,328.7734 Q1653.3438,328.5 1653.9688,327.9219 L1653.9688,330.6406 Z "/><text fill="#000000" font-family="sans-serif" font-size="12" lengthAdjust="spacingAndGlyphs" textLength="188" x="1665" y="329.1543">ForcePressGestureRecognizer</text><line style="stroke: #A80036; stroke-width: 1.5;" x1="1637" x2="1855" y1="341" y2="341"/><line style="stroke: #A80036; stroke-width: 1.5;" x1="1637" x2="1855" y1="349" y2="349"/><path d="M1683.5,428.5 L1683.5,453.6328 A0,0 0 0 0 1683.5,453.6328 L1808.5,453.6328 A0,0 0 0 0 1808.5,453.6328 L1808.5,438.5 L1798.5,428.5 L1750,428.5 L1746,357.2373 L1742,428.5 L1683.5,428.5 A0,0 0 0 0 1683.5,428.5 " fill="#FBFB77" filter="url(#f1d44b8mxjm2n0)" style="stroke: #A80036; stroke-width: 1.0;"/><path d="M1798.5,428.5 L1798.5,438.5 L1808.5,438.5 L1798.5,428.5 " fill="#FBFB77" style="stroke: #A80036; stroke-width: 1.0;"/><text fill="#000000" font-family="sans-serif" font-size="13" lengthAdjust="spacingAndGlyphs" textLength="104" x="1689.5" y="445.5669">force_press.dart</text><rect fill="#FEFECE" filter="url(#f1d44b8mxjm2n0)" height="48" id="MultiDragGestureRecognizer" style="stroke: #A80036; stroke-width: 1.5;" width="209" x="2526.5" y="201"/><ellipse cx="2541.5" cy="217" fill="#A9DCDF" rx="11" ry="11" style="stroke: #A80036; stroke-width: 1.0;"/><path d="M2541.6094,212.3438 L2540.4531,217.4219 L2542.7813,217.4219 L2541.6094,212.3438 Z M2540.125,210.1094 L2543.1094,210.1094 L2546.4688,222.5 L2544.0156,222.5 L2543.25,219.4375 L2539.9688,219.4375 L2539.2188,222.5 L2536.7813,222.5 L2540.125,210.1094 Z "/><text fill="#000000" font-family="sans-serif" font-size="12" font-style="italic" lengthAdjust="spacingAndGlyphs" textLength="177" x="2555.5" y="221.1543">MultiDragGestureRecognizer</text><line style="stroke: #A80036; stroke-width: 1.5;" x1="2527.5" x2="2734.5" y1="233" y2="233"/><line style="stroke: #A80036; stroke-width: 1.5;" x1="2527.5" x2="2734.5" y1="241" y2="241"/><path d="M2379,212.5 L2379,237.6328 A0,0 0 0 0 2379,237.6328 L2491,237.6328 A0,0 0 0 0 2491,237.6328 L2491,230.5 L2526.478,225 L2491,222.5 L2491,222.5 L2481,212.5 L2379,212.5 A0,0 0 0 0 2379,212.5 " fill="#FBFB77" filter="url(#f1d44b8mxjm2n0)" style="stroke: #A80036; stroke-width: 1.0;"/><path d="M2481,212.5 L2481,222.5 L2491,222.5 L2481,212.5 " fill="#FBFB77" style="stroke: #A80036; stroke-width: 1.0;"/><text fill="#000000" font-family="sans-serif" font-size="13" lengthAdjust="spacingAndGlyphs" textLength="91" x="2385" y="229.5669">multidrag.dart</text><rect fill="#FEFECE" filter="url(#f1d44b8mxjm2n0)" height="48" id="DelayedMultiDragGestureRecognizer" style="stroke: #A80036; stroke-width: 1.5;" width="259" x="1891.5" y="309"/><ellipse cx="1906.5" cy="325" fill="#ADD1B2" rx="11" ry="11" style="stroke: #A80036; stroke-width: 1.0;"/><path d="M1909.4688,330.6406 Q1908.8906,330.9375 1908.25,331.0859 Q1907.6094,331.2344 1906.9063,331.2344 Q1904.4063,331.2344 1903.0859,329.5859 Q1901.7656,327.9375 1901.7656,324.8125 Q1901.7656,321.6875 1903.0859,320.0313 Q1904.4063,318.375 1906.9063,318.375 Q1907.6094,318.375 1908.2578,318.5313 Q1908.9063,318.6875 1909.4688,318.9844 L1909.4688,321.7031 Q1908.8438,321.125 1908.25,320.8516 Q1907.6563,320.5781 1907.0313,320.5781 Q1905.6875,320.5781 1905,321.6484 Q1904.3125,322.7188 1904.3125,324.8125 Q1904.3125,326.9063 1905,327.9766 Q1905.6875,329.0469 1907.0313,329.0469 Q1907.6563,329.0469 1908.25,328.7734 Q1908.8438,328.5 1909.4688,327.9219 L1909.4688,330.6406 Z "/><text fill="#000000" font-family="sans-serif" font-size="12" lengthAdjust="spacingAndGlyphs" textLength="227" x="1920.5" y="329.1543">DelayedMultiDragGestureRecognizer</text><line style="stroke: #A80036; stroke-width: 1.5;" x1="1892.5" x2="2149.5" y1="341" y2="341"/><line style="stroke: #A80036; stroke-width: 1.5;" x1="1892.5" x2="2149.5" y1="349" y2="349"/><path d="M1965,428.5 L1965,453.6328 A0,0 0 0 0 1965,453.6328 L2077,453.6328 A0,0 0 0 0 2077,453.6328 L2077,438.5 L2067,428.5 L2025,428.5 L2021,357.2373 L2017,428.5 L1965,428.5 A0,0 0 0 0 1965,428.5 " fill="#FBFB77" filter="url(#f1d44b8mxjm2n0)" style="stroke: #A80036; stroke-width: 1.0;"/><path d="M2067,428.5 L2067,438.5 L2077,438.5 L2067,428.5 " fill="#FBFB77" style="stroke: #A80036; stroke-width: 1.0;"/><text fill="#000000" font-family="sans-serif" font-size="13" lengthAdjust="spacingAndGlyphs" textLength="91" x="1971" y="445.5669">multidrag.dart</text><rect fill="#FEFECE" filter="url(#f1d44b8mxjm2n0)" height="48" id="ImmediateMultiDragGestureRecognizer" style="stroke: #A80036; stroke-width: 1.5;" width="274" x="2186" y="309"/><ellipse cx="2201" cy="325" fill="#ADD1B2" rx="11" ry="11" style="stroke: #A80036; stroke-width: 1.0;"/><path d="M2203.9688,330.6406 Q2203.3906,330.9375 2202.75,331.0859 Q2202.1094,331.2344 2201.4063,331.2344 Q2198.9063,331.2344 2197.5859,329.5859 Q2196.2656,327.9375 2196.2656,324.8125 Q2196.2656,321.6875 2197.5859,320.0313 Q2198.9063,318.375 2201.4063,318.375 Q2202.1094,318.375 2202.7578,318.5313 Q2203.4063,318.6875 2203.9688,318.9844 L2203.9688,321.7031 Q2203.3438,321.125 2202.75,320.8516 Q2202.1563,320.5781 2201.5313,320.5781 Q2200.1875,320.5781 2199.5,321.6484 Q2198.8125,322.7188 2198.8125,324.8125 Q2198.8125,326.9063 2199.5,327.9766 Q2200.1875,329.0469 2201.5313,329.0469 Q2202.1563,329.0469 2202.75,328.7734 Q2203.3438,328.5 2203.9688,327.9219 L2203.9688,330.6406 Z "/><text fill="#000000" font-family="sans-serif" font-size="12" lengthAdjust="spacingAndGlyphs" textLength="242" x="2215" y="329.1543">ImmediateMultiDragGestureRecognizer</text><line style="stroke: #A80036; stroke-width: 1.5;" x1="2187" x2="2459" y1="341" y2="341"/><line style="stroke: #A80036; stroke-width: 1.5;" x1="2187" x2="2459" y1="349" y2="349"/><path d="M2267,428.5 L2267,453.6328 A0,0 0 0 0 2267,453.6328 L2379,453.6328 A0,0 0 0 0 2379,453.6328 L2379,438.5 L2369,428.5 L2327,428.5 L2323,357.2373 L2319,428.5 L2267,428.5 A0,0 0 0 0 2267,428.5 " fill="#FBFB77" filter="url(#f1d44b8mxjm2n0)" style="stroke: #A80036; stroke-width: 1.0;"/><path d="M2369,428.5 L2369,438.5 L2379,438.5 L2369,428.5 " fill="#FBFB77" style="stroke: #A80036; stroke-width: 1.0;"/><text fill="#000000" font-family="sans-serif" font-size="13" lengthAdjust="spacingAndGlyphs" textLength="91" x="2273" y="445.5669">multidrag.dart</text><rect fill="#FEFECE" filter="url(#f1d44b8mxjm2n0)" height="48" id="HorizontalMultiDragGestureRecognizer" style="stroke: #A80036; stroke-width: 1.5;" width="271" x="2495.5" y="309"/><ellipse cx="2510.5" cy="325" fill="#ADD1B2" rx="11" ry="11" style="stroke: #A80036; stroke-width: 1.0;"/><path d="M2513.4688,330.6406 Q2512.8906,330.9375 2512.25,331.0859 Q2511.6094,331.2344 2510.9063,331.2344 Q2508.4063,331.2344 2507.0859,329.5859 Q2505.7656,327.9375 2505.7656,324.8125 Q2505.7656,321.6875 2507.0859,320.0313 Q2508.4063,318.375 2510.9063,318.375 Q2511.6094,318.375 2512.2578,318.5313 Q2512.9063,318.6875 2513.4688,318.9844 L2513.4688,321.7031 Q2512.8438,321.125 2512.25,320.8516 Q2511.6563,320.5781 2511.0313,320.5781 Q2509.6875,320.5781 2509,321.6484 Q2508.3125,322.7188 2508.3125,324.8125 Q2508.3125,326.9063 2509,327.9766 Q2509.6875,329.0469 2511.0313,329.0469 Q2511.6563,329.0469 2512.25,328.7734 Q2512.8438,328.5 2513.4688,327.9219 L2513.4688,330.6406 Z "/><text fill="#000000" font-family="sans-serif" font-size="12" lengthAdjust="spacingAndGlyphs" textLength="239" x="2524.5" y="329.1543">HorizontalMultiDragGestureRecognizer</text><line style="stroke: #A80036; stroke-width: 1.5;" x1="2496.5" x2="2765.5" y1="341" y2="341"/><line style="stroke: #A80036; stroke-width: 1.5;" x1="2496.5" x2="2765.5" y1="349" y2="349"/><path d="M2575,428.5 L2575,453.6328 A0,0 0 0 0 2575,453.6328 L2687,453.6328 A0,0 0 0 0 2687,453.6328 L2687,438.5 L2677,428.5 L2635,428.5 L2631,357.2373 L2627,428.5 L2575,428.5 A0,0 0 0 0 2575,428.5 " fill="#FBFB77" filter="url(#f1d44b8mxjm2n0)" style="stroke: #A80036; stroke-width: 1.0;"/><path d="M2677,428.5 L2677,438.5 L2687,438.5 L2677,428.5 " fill="#FBFB77" style="stroke: #A80036; stroke-width: 1.0;"/><text fill="#000000" font-family="sans-serif" font-size="13" lengthAdjust="spacingAndGlyphs" textLength="91" x="2581" y="445.5669">multidrag.dart</text><rect fill="#FEFECE" filter="url(#f1d44b8mxjm2n0)" height="48" id="VerticalMultiDragGestureRecognizer" style="stroke: #A80036; stroke-width: 1.5;" width="256" x="2802" y="309"/><ellipse cx="2817" cy="325" fill="#ADD1B2" rx="11" ry="11" style="stroke: #A80036; stroke-width: 1.0;"/><path d="M2819.9688,330.6406 Q2819.3906,330.9375 2818.75,331.0859 Q2818.1094,331.2344 2817.4063,331.2344 Q2814.9063,331.2344 2813.5859,329.5859 Q2812.2656,327.9375 2812.2656,324.8125 Q2812.2656,321.6875 2813.5859,320.0313 Q2814.9063,318.375 2817.4063,318.375 Q2818.1094,318.375 2818.7578,318.5313 Q2819.4063,318.6875 2819.9688,318.9844 L2819.9688,321.7031 Q2819.3438,321.125 2818.75,320.8516 Q2818.1563,320.5781 2817.5313,320.5781 Q2816.1875,320.5781 2815.5,321.6484 Q2814.8125,322.7188 2814.8125,324.8125 Q2814.8125,326.9063 2815.5,327.9766 Q2816.1875,329.0469 2817.5313,329.0469 Q2818.1563,329.0469 2818.75,328.7734 Q2819.3438,328.5 2819.9688,327.9219 L2819.9688,330.6406 Z "/><text fill="#000000" font-family="sans-serif" font-size="12" lengthAdjust="spacingAndGlyphs" textLength="224" x="2831" y="329.1543">VerticalMultiDragGestureRecognizer</text><line style="stroke: #A80036; stroke-width: 1.5;" x1="2803" x2="3057" y1="341" y2="341"/><line style="stroke: #A80036; stroke-width: 1.5;" x1="2803" x2="3057" y1="349" y2="349"/><path d="M2874,428.5 L2874,453.6328 A0,0 0 0 0 2874,453.6328 L2986,453.6328 A0,0 0 0 0 2986,453.6328 L2986,438.5 L2976,428.5 L2934,428.5 L2930,357.2373 L2926,428.5 L2874,428.5 A0,0 0 0 0 2874,428.5 " fill="#FBFB77" filter="url(#f1d44b8mxjm2n0)" style="stroke: #A80036; stroke-width: 1.0;"/><path d="M2976,428.5 L2976,438.5 L2986,438.5 L2976,428.5 " fill="#FBFB77" style="stroke: #A80036; stroke-width: 1.0;"/><text fill="#000000" font-family="sans-serif" font-size="13" lengthAdjust="spacingAndGlyphs" textLength="91" x="2880" y="445.5669">multidrag.dart</text><rect fill="#FEFECE" filter="url(#f1d44b8mxjm2n0)" height="48" id="MultiTapGestureRecognizer" style="stroke: #A80036; stroke-width: 1.5;" width="202" x="2854" y="201"/><ellipse cx="2869" cy="217" fill="#ADD1B2" rx="11" ry="11" style="stroke: #A80036; stroke-width: 1.0;"/><path d="M2871.9688,222.6406 Q2871.3906,222.9375 2870.75,223.0859 Q2870.1094,223.2344 2869.4063,223.2344 Q2866.9063,223.2344 2865.5859,221.5859 Q2864.2656,219.9375 2864.2656,216.8125 Q2864.2656,213.6875 2865.5859,212.0313 Q2866.9063,210.375 2869.4063,210.375 Q2870.1094,210.375 2870.7578,210.5313 Q2871.4063,210.6875 2871.9688,210.9844 L2871.9688,213.7031 Q2871.3438,213.125 2870.75,212.8516 Q2870.1563,212.5781 2869.5313,212.5781 Q2868.1875,212.5781 2867.5,213.6484 Q2866.8125,214.7188 2866.8125,216.8125 Q2866.8125,218.9063 2867.5,219.9766 Q2868.1875,221.0469 2869.5313,221.0469 Q2870.1563,221.0469 2870.75,220.7734 Q2871.3438,220.5 2871.9688,219.9219 L2871.9688,222.6406 Z "/><text fill="#000000" font-family="sans-serif" font-size="12" lengthAdjust="spacingAndGlyphs" textLength="170" x="2883" y="221.1543">MultiTapGestureRecognizer</text><line style="stroke: #A80036; stroke-width: 1.5;" x1="2855" x2="3055" y1="233" y2="233"/><line style="stroke: #A80036; stroke-width: 1.5;" x1="2855" x2="3055" y1="241" y2="241"/><path d="M3093,320.5 L3093,345.6328 A0,0 0 0 0 3093,345.6328 L3197,345.6328 A0,0 0 0 0 3197,345.6328 L3197,330.5 L3187,320.5 L3126.8859,320.5 L2997.6397,249.2373 L3118.8859,320.5 L3093,320.5 A0,0 0 0 0 3093,320.5 " fill="#FBFB77" filter="url(#f1d44b8mxjm2n0)" style="stroke: #A80036; stroke-width: 1.0;"/><path d="M3187,320.5 L3187,330.5 L3197,330.5 L3187,320.5 " fill="#FBFB77" style="stroke: #A80036; stroke-width: 1.0;"/><text fill="#000000" font-family="sans-serif" font-size="13" lengthAdjust="spacingAndGlyphs" textLength="83" x="3099" y="337.5669">multitap.dart</text><rect fill="#FEFECE" filter="url(#f1d44b8mxjm2n0)" height="48" id="DoubleTapGestureRecognizer" style="stroke: #A80036; stroke-width: 1.5;" width="217" x="3133.5" y="201"/><ellipse cx="3148.5" cy="217" fill="#ADD1B2" rx="11" ry="11" style="stroke: #A80036; stroke-width: 1.0;"/><path d="M3151.4688,222.6406 Q3150.8906,222.9375 3150.25,223.0859 Q3149.6094,223.2344 3148.9063,223.2344 Q3146.4063,223.2344 3145.0859,221.5859 Q3143.7656,219.9375 3143.7656,216.8125 Q3143.7656,213.6875 3145.0859,212.0313 Q3146.4063,210.375 3148.9063,210.375 Q3149.6094,210.375 3150.2578,210.5313 Q3150.9063,210.6875 3151.4688,210.9844 L3151.4688,213.7031 Q3150.8438,213.125 3150.25,212.8516 Q3149.6563,212.5781 3149.0313,212.5781 Q3147.6875,212.5781 3147,213.6484 Q3146.3125,214.7188 3146.3125,216.8125 Q3146.3125,218.9063 3147,219.9766 Q3147.6875,221.0469 3149.0313,221.0469 Q3149.6563,221.0469 3150.25,220.7734 Q3150.8438,220.5 3151.4688,219.9219 L3151.4688,222.6406 Z "/><text fill="#000000" font-family="sans-serif" font-size="12" lengthAdjust="spacingAndGlyphs" textLength="185" x="3162.5" y="221.1543">DoubleTapGestureRecognizer</text><line style="stroke: #A80036; stroke-width: 1.5;" x1="3134.5" x2="3349.5" y1="233" y2="233"/><line style="stroke: #A80036; stroke-width: 1.5;" x1="3134.5" x2="3349.5" y1="241" y2="241"/><path d="M3232,320.5 L3232,345.6328 A0,0 0 0 0 3232,345.6328 L3336,345.6328 A0,0 0 0 0 3336,345.6328 L3336,330.5 L3326,320.5 L3283.0544,320.5 L3251.4256,249.2373 L3275.0544,320.5 L3232,320.5 A0,0 0 0 0 3232,320.5 " fill="#FBFB77" filter="url(#f1d44b8mxjm2n0)" style="stroke: #A80036; stroke-width: 1.0;"/><path d="M3326,320.5 L3326,330.5 L3336,330.5 L3326,320.5 " fill="#FBFB77" style="stroke: #A80036; stroke-width: 1.0;"/><text fill="#000000" font-family="sans-serif" font-size="13" lengthAdjust="spacingAndGlyphs" textLength="83" x="3238" y="337.5669">multitap.dart</text><path d="M2655.7307,124.599 C2414.6682,143.8271 1780.8724,194.3809 1516.0023,215.5079 " fill="none" id="GestureRecognizer&lt;-OneSequenceGestureRecognizer" style="stroke: #A80036; stroke-width: 1.0;"/><polygon fill="none" points="2655.2955,117.6116,2675.7888,122.9991,2656.4087,131.5673,2655.2955,117.6116" style="stroke: #A80036; stroke-width: 1.0;"/><path d="M1258.0643,249.1142 C987.6828,285.581 694.248,311.1141 533.6082,323.8862 " fill="none" id="OneSequenceGestureRecognizer&lt;-PrimaryPointerGestureRecognizer" style="stroke: #A80036; stroke-width: 1.0;"/><polygon fill="none" points="1257.1418,242.1753,1277.9034,246.4129,1259.0307,256.0473,1257.1418,242.1753" style="stroke: #A80036; stroke-width: 1.0;"/><path d="M339.9555,365.1992 C302.2792,381.8075 257.1022,401.7223 222.5107,416.9708 " fill="none" id="PrimaryPointerGestureRecognizer&lt;-BaseTapGestureRecognizer" style="stroke: #A80036; stroke-width: 1.0;"/><polygon fill="none" points="337.1978,358.765,358.3222,357.1029,342.8449,371.5755,337.1978,358.765" style="stroke: #A80036; stroke-width: 1.0;"/><path d="M180.9803,484.8084 C185.0295,498.4747 189.3466,513.0447 192.8425,524.8436 " fill="none" id="BaseTapGestureRecognizer&lt;-TapGestureRecognizer" style="stroke: #A80036; stroke-width: 1.0;"/><polygon fill="none" points="174.1517,486.4019,175.1814,465.2373,187.5748,482.4246,174.1517,486.4019" style="stroke: #A80036; stroke-width: 1.0;"/><path d="M413,377.2911 C413,390.8171 413,405.1835 413,416.8436 " fill="none" id="PrimaryPointerGestureRecognizer&lt;-LongPressGestureRecognizer" style="stroke: #A80036; stroke-width: 1.0;"/><polygon fill="none" points="406.0001,377.2373,413,357.2373,420.0001,377.2373,406.0001,377.2373" style="stroke: #A80036; stroke-width: 1.0;"/><path d="M1270.1924,253.4724 C1187.1549,272.117 1080.6307,296.0351 1006.1835,312.7509 " fill="none" id="OneSequenceGestureRecognizer&lt;-DragGestureRecognizer" style="stroke: #A80036; stroke-width: 1.0;"/><polygon fill="none" points="1268.9041,246.5874,1289.9518,249.0358,1271.9713,260.2473,1268.9041,246.5874" style="stroke: #A80036; stroke-width: 1.0;"/><path d="M839.8938,364.8584 C800.0565,381.5345 752.0795,401.6179 715.4031,416.9708 " fill="none" id="DragGestureRecognizer&lt;-PanDragGestureRecognizer" style="stroke: #A80036; stroke-width: 1.0;"/><polygon fill="none" points="837.2691,358.3686,858.4209,357.1029,842.675,371.2828,837.2691,358.3686" style="stroke: #A80036; stroke-width: 1.0;"/><path d="M916,377.2911 C916,390.8171 916,405.1835 916,416.8436 " fill="none" id="DragGestureRecognizer&lt;-HorizontalDragGestureRecognizer" style="stroke: #A80036; stroke-width: 1.0;"/><polygon fill="none" points="909.0001,377.2373,916,357.2373,923.0001,377.2373,909.0001,377.2373" style="stroke: #A80036; stroke-width: 1.0;"/><path d="M995.0793,364.6317 C1036.8806,381.3522 1087.3706,401.5482 1125.927,416.9708 " fill="none" id="DragGestureRecognizer&lt;-VerticalDragGestureRecognizer" style="stroke: #A80036; stroke-width: 1.0;"/><polygon fill="none" points="992.227,371.0301,976.2572,357.1029,997.4265,358.0314,992.227,371.0301" style="stroke: #A80036; stroke-width: 1.0;"/><path d="M1357.373,263.556 C1341.8523,278.6572 1324.5234,295.5178 1310.8274,308.8436 " fill="none" id="OneSequenceGestureRecognizer&lt;-ScaleGestureRecognizer" style="stroke: #A80036; stroke-width: 1.0;"/><polygon fill="none" points="1352.8734,258.1673,1372.0894,249.2373,1362.6364,268.2015,1352.8734,258.1673" style="stroke: #A80036; stroke-width: 1.0;"/><path d="M1436.27,263.556 C1451.6509,278.6572 1468.8237,295.5178 1482.3962,308.8436 " fill="none" id="OneSequenceGestureRecognizer&lt;-EagerGestureRecognizer" style="stroke: #A80036; stroke-width: 1.0;"/><polygon fill="none" points="1431.0533,268.2441,1421.6861,249.2373,1440.8616,258.2542,1431.0533,268.2441" style="stroke: #A80036; stroke-width: 1.0;"/><path d="M1494.1292,255.0572 C1549.109,272.071 1616.9374,293.0609 1668.3501,308.9708 " fill="none" id="OneSequenceGestureRecognizer&lt;-ForcePressGestureRecognizer" style="stroke: #A80036; stroke-width: 1.0;"/><polygon fill="none" points="1491.9247,261.7026,1474.888,249.1029,1496.0635,248.3283,1491.9247,261.7026" style="stroke: #A80036; stroke-width: 1.0;"/><path d="M2708.9451,154.8494 C2691.9673,170.1294 2672.8782,187.3096 2657.8405,200.8436 " fill="none" id="GestureRecognizer&lt;-MultiDragGestureRecognizer" style="stroke: #A80036; stroke-width: 1.0;"/><polygon fill="none" points="2704.521,149.4136,2724.0697,141.2373,2713.8865,159.8197,2704.521,149.4136" style="stroke: #A80036; stroke-width: 1.0;"/><path d="M2506.3599,249.2497 C2373.8779,273.4844 2244.0927,295.7029 2150.5886,311.4415 " fill="none" id="MultiDragGestureRecognizer&lt;-DelayedMultiDragGestureRecognizer" style="stroke: #A80036; stroke-width: 1.0;"/><polygon fill="none" points="2505.4152,242.3063,2526.3502,245.5812,2507.9423,256.0763,2505.4152,242.3063" style="stroke: #A80036; stroke-width: 1.0;"/><path d="M2543.3645,255.7293 C2495.1912,272.6213 2436.3048,293.2697 2391.5277,308.9708 " fill="none" id="MultiDragGestureRecognizer&lt;-ImmediateMultiDragGestureRecognizer" style="stroke: #A80036; stroke-width: 1.0;"/><polygon fill="none" points="2541.0725,249.1152,2562.2621,249.1029,2545.7051,262.3265,2541.0725,249.1152" style="stroke: #A80036; stroke-width: 1.0;"/><path d="M2631,269.2911 C2631,282.8171 2631,297.1835 2631,308.8436 " fill="none" id="MultiDragGestureRecognizer&lt;-HorizontalMultiDragGestureRecognizer" style="stroke: #A80036; stroke-width: 1.0;"/><polygon fill="none" points="2624.0001,269.2373,2631,249.2373,2638.0001,269.2373,2624.0001,269.2373" style="stroke: #A80036; stroke-width: 1.0;"/><path d="M2716.6975,255.9543 C2763.3471,272.8043 2820.1988,293.3394 2863.4747,308.9708 " fill="none" id="MultiDragGestureRecognizer&lt;-VerticalMultiDragGestureRecognizer" style="stroke: #A80036; stroke-width: 1.0;"/><polygon fill="none" points="2714.1617,262.4811,2697.7293,249.1029,2718.9179,249.3137,2714.1617,262.4811" style="stroke: #A80036; stroke-width: 1.0;"/><path d="M2814.4129,150.5716 C2845.2466,166.8952 2881.5979,186.1401 2909.6115,200.9708 " fill="none" id="GestureRecognizer&lt;-MultiTapGestureRecognizer" style="stroke: #A80036; stroke-width: 1.0;"/><polygon fill="none" points="2810.9282,156.6472,2796.5277,141.1029,2817.4787,144.2742,2810.9282,156.6472" style="stroke: #A80036; stroke-width: 1.0;"/><path d="M2845.6609,137.8215 C2927.9123,155.9135 3047.0479,182.1185 3133.2061,201.0698 " fill="none" id="GestureRecognizer&lt;-DoubleTapGestureRecognizer" style="stroke: #A80036; stroke-width: 1.0;"/><polygon fill="none" points="2844.1361,144.6536,2826.1068,133.5204,2847.1437,130.9804,2844.1361,144.6536" style="stroke: #A80036; stroke-width: 1.0;"/></g></svg>